<?xml version="1.0" encoding="UTF-8"?><svg id="Layer_2" xmlns="http://www.w3.org/2000/svg" viewBox="0 0 688.78 460.95"><defs><style>.cls-1{letter-spacing:.05em;}.cls-2,.cls-3{letter-spacing:.05em;}.cls-4{fill:#543cea;}.cls-5{fill:#503ceb;}.cls-6{letter-spacing:.01em;}.cls-7{letter-spacing:-.02em;}.cls-8{letter-spacing:-.02em;}.cls-3,.cls-9{fill:#fff;font-family:Roboto-BoldItalic, Roboto;font-size:67.41px;}</style></defs><g id="Layer_1-2"><polygon class="cls-5" points="558.36 460.95 129.93 460.95 152.15 375 581.6 375 558.36 460.95"/><g><path class="cls-4" d="M96.51,243.17c0,21.84-17.24,38.05-46.97,38.05-25.41,0-44.15-10.8-49.54-15.57l9.06-25.94c9.25,8.66,24.98,14.9,37.91,15.11,12.71,.21,21.96-2.57,21.96-9.3,0-4.74-4.74-6.49-18.95-8.84C10.13,230.18,3.4,217.42,3.4,199.92s18.74-32.85,46.75-32.85c14.48,.19,28.71,3.72,41.58,10.37l-7.75,25.08c-5.39-3.89-19.6-8.84-33.8-9.08-11.21-.21-19.17,1.96-19.17,6.48,0,6.49,11.21,7.56,22.6,9.51,36.22,5.84,42.89,20.12,42.89,33.74Z"/><path class="cls-4" d="M209.64,214.69v63.16h-27.53v-59.65c0-16.88-6.46-24.57-20.64-24.57-12.47,0-24.1,8.33-24.1,28.08v56.14h-27.53V123.47h27.53v56.14c7.32-8.76,16.14-14.04,32.28-14.04,24.53,0,40,16.24,40,49.12Z"/><path class="cls-4" d="M339.42,224.15c0,11.28-3.4,22.32-9.81,31.7-6.41,9.38-15.49,16.69-26.14,21.01-10.64,4.31-22.36,5.44-33.64,3.24-11.29-2.2-21.66-7.64-29.81-15.62-8.15-7.99-13.7-18.14-15.92-29.21-2.25-11.07-1.1-22.54,3.32-32.96,4.4-10.42,11.88-19.35,21.45-25.62,9.57-6.27,20.83-9.62,32.36-9.62,7.64,0,15.23,1.47,22.3,4.31,7.08,2.84,13.48,7.07,18.9,12.35,5.42,5.31,9.7,11.6,12.63,18.52,2.87,6.97,4.37,14.39,4.37,21.89Zm-28.23,0c0-5.81-1.77-11.5-5.07-16.32-3.3-4.82-7.99-8.6-13.46-10.83-5.47-2.22-11.5-2.81-17.32-1.66-5.82,1.13-11.15,3.94-15.36,8.04-4.21,4.1-7.05,9.35-8.2,15.03-1.15,5.71-.56,11.6,1.72,16.99,2.28,5.39,6.11,9.97,11.04,13.18,4.93,3.22,10.72,4.96,16.67,4.96,7.96,0,15.58-3.11,21.2-8.6,5.6-5.52,8.77-13,8.77-20.79Z"/><path class="cls-4" d="M465.87,224.77c0,31.91-24.48,57.69-54.69,57.69-13.24,0-24.72-5.04-33.54-15.08v67.53h-28.23V170.58h28.23v11.58c8.82-10.05,20.29-15.09,33.54-15.09,30.24,.03,54.69,25.81,54.69,57.69Zm-28.26,0c0-5.87-1.77-11.63-5.07-16.51-3.3-4.88-7.99-8.68-13.46-10.93-5.47-2.25-11.5-2.84-17.34-1.69-5.82,1.15-11.15,3.99-15.36,8.15-4.21,4.15-7.05,9.46-8.2,15.22-1.15,5.76-.56,11.74,1.72,17.18,2.28,5.44,6.11,10.08,11.04,13.34,4.93,3.27,10.72,5.01,16.67,5.01,7.96,0,15.58-3.14,21.2-8.71,5.63-5.63,8.79-13.18,8.79-21.06Z"/><path class="cls-4" d="M572.32,243.15c0,21.84-17.83,38.05-48.58,38.05-26.3,0-45.68-10.82-51.26-15.57l9.36-25.94c9.57,8.66,25.84,14.93,39.22,15.14,13.14,.21,22.74-2.6,22.74-9.3,0-4.74-4.91-6.48-19.63-8.84-41.23-6.49-48.12-19.24-48.12-36.74s19.38-32.85,48.36-32.85c14.96,.19,29.7,3.72,43.03,10.37l-8.02,25.08c-5.58-3.89-20.26-8.84-34.98-9.08-11.61-.21-19.84,1.96-19.84,6.49,0,6.48,11.61,7.56,23.4,9.51,37.43,5.81,44.32,20.07,44.32,33.68Z"/><path class="cls-4" d="M688.78,170.45l-70.56,164.45h-31.77l28.26-63.86-42.36-100.59h31.77l26.49,63.86,26.48-63.86h31.69Z"/></g><text class="cls-9" transform="translate(186.85 441.88)"><tspan class="cls-2" x="0" y="0">KI</tspan><tspan class="cls-7" x="67.97" y="0">Y</tspan><tspan class="cls-1" x="107.15" y="0">A K</tspan><tspan class="cls-8" x="220.06" y="0">Y</tspan><tspan class="cls-6" x="259.25" y="0">A</tspan><tspan class="cls-2" x="304.29" y="0">?</tspan></text><polygon class="cls-5" points="488.36 85.95 199.93 85.95 222.15 0 511.6 0 488.36 85.95"/><text class="cls-3" transform="translate(289.65 66.88)"><tspan x="0" y="0">AAJ</tspan></text></g></svg>