<svg width="220" height="55" viewBox="0 0 220 55" fill="none" xmlns="http://www.w3.org/2000/svg">
<path d="M8.44336 1.72559H211.159C215.025 1.72559 218.159 4.85959 218.159 8.72559V46.8767C218.159 50.7427 215.025 53.8767 211.159 53.8767H8.44336C4.57736 53.8767 1.44336 50.7426 1.44336 46.8767V8.72558C1.44336 4.85959 4.57736 1.72559 8.44336 1.72559Z" stroke="white" stroke-opacity="0.85" stroke-width="2"/>
<path d="M45.8555 24.1903H48.5572C47.9691 20.7898 45.0629 18.4375 41.2958 18.4375C36.7788 18.4375 33.4805 21.8381 33.4805 27.4119C33.4805 32.9347 36.685 36.3693 41.4151 36.3693C45.6509 36.3693 48.6765 33.5909 48.6765 29.1847V27.1989H41.8157V29.3722H46.1282C46.0685 32.1847 44.2106 33.9659 41.4151 33.9659C38.3384 33.9659 36.0969 31.6392 36.0969 27.3949C36.0969 23.1676 38.3555 20.8409 41.3129 20.8409C43.631 20.8409 45.1992 22.1193 45.8555 24.1903Z" fill="white"/>
<path d="M52.2195 36.1307H63.265V33.8636H54.8531V28.5199H62.5917V26.2614H54.8531V20.9432H63.1627V18.6761H52.2195V36.1307Z" fill="white"/>
<path d="M66.0197 20.9432H71.4572V36.1307H74.0822V20.9432H79.5282V18.6761H66.0197V20.9432Z" fill="white"/>
<path d="M98.7847 23.2614H101.325C101.248 20.4659 98.7762 18.4375 95.2308 18.4375C91.7279 18.4375 89.0433 20.4403 89.0433 23.4489C89.0433 25.8778 90.7819 27.3011 93.5859 28.0597L95.6484 28.6222C97.5148 29.1165 98.9552 29.7301 98.9552 31.2812C98.9552 32.9858 97.3273 34.1108 95.0859 34.1108C93.0575 34.1108 91.37 33.2074 91.2166 31.3068H88.5745C88.745 34.4688 91.191 36.4205 95.1029 36.4205C99.2023 36.4205 101.563 34.2642 101.563 31.3068C101.563 28.1619 98.7592 26.9432 96.5433 26.3977L94.8387 25.9545C93.4751 25.6051 91.6597 24.9659 91.6683 23.2955C91.6683 21.8125 93.0234 20.7131 95.1711 20.7131C97.1739 20.7131 98.5972 21.6506 98.7847 23.2614Z" fill="white"/>
<path d="M104.91 36.1307H107.544V28.5199H116.245V36.1307H118.887V18.6761H116.245V26.2614H107.544V18.6761H104.91V36.1307Z" fill="white"/>
<path d="M138.085 27.4034C138.085 21.821 134.744 18.4375 130.227 18.4375C125.693 18.4375 122.36 21.821 122.36 27.4034C122.36 32.9773 125.693 36.3693 130.227 36.3693C134.744 36.3693 138.085 32.9858 138.085 27.4034ZM135.477 27.4034C135.477 31.6563 133.227 33.9659 130.227 33.9659C127.218 33.9659 124.977 31.6563 124.977 27.4034C124.977 23.1506 127.218 20.8409 130.227 20.8409C133.227 20.8409 135.477 23.1506 135.477 27.4034Z" fill="white"/>
<path d="M141.568 36.1307H144.201V29.9943H147.781C151.829 29.9943 153.832 27.5483 153.832 24.3267C153.832 21.1136 151.846 18.6761 147.79 18.6761H141.568V36.1307ZM144.201 27.7614V20.9347H147.508C150.116 20.9347 151.182 22.3494 151.182 24.3267C151.182 26.304 150.116 27.7614 147.542 27.7614H144.201Z" fill="white"/>
<path d="M166.639 23.2614H169.179C169.102 20.4659 166.631 18.4375 163.085 18.4375C159.583 18.4375 156.898 20.4403 156.898 23.4489C156.898 25.8778 158.637 27.3011 161.441 28.0597L163.503 28.6222C165.37 29.1165 166.81 29.7301 166.81 31.2812C166.81 32.9858 165.182 34.1108 162.941 34.1108C160.912 34.1108 159.225 33.2074 159.071 31.3068H156.429C156.6 34.4688 159.046 36.4205 162.958 36.4205C167.057 36.4205 169.418 34.2642 169.418 31.3068C169.418 28.1619 166.614 26.9432 164.398 26.3977L162.693 25.9545C161.33 25.6051 159.514 24.9659 159.523 23.2955C159.523 21.8125 160.878 20.7131 163.026 20.7131C165.029 20.7131 166.452 21.6506 166.639 23.2614Z" fill="white"/>
<path d="M171.418 18.6761L177.751 29.2784V36.1307H180.376V29.2784L186.708 18.6761H183.717L179.157 26.6108H178.969L174.41 18.6761H171.418Z" fill="white"/>
</svg>
