<svg width="343" height="56" viewBox="0 0 343 56" fill="none" xmlns="http://www.w3.org/2000/svg">
<rect x="1" y="1" width="341" height="54" rx="7" stroke="#968AF3" stroke-width="2"/>
<path d="M19.7815 36.8862H14.1309V19.4317H19.9604C21.6707 19.4317 23.1394 19.7811 24.3667 20.48C25.594 21.1732 26.5343 22.1703 27.1877 23.4715C27.8468 24.7669 28.1764 26.3209 28.1764 28.1334C28.1764 29.9516 27.844 31.5141 27.1792 32.8209C26.5201 34.1277 25.5656 35.1334 24.3156 35.8379C23.0656 36.5368 21.5542 36.8862 19.7815 36.8862ZM16.7644 34.5851H19.6366C20.9661 34.5851 22.0712 34.3351 22.9519 33.8351C23.8326 33.3294 24.4917 32.5993 24.9292 31.6448C25.3667 30.6845 25.5854 29.5141 25.5854 28.1334C25.5854 26.7641 25.3667 25.6021 24.9292 24.6476C24.4974 23.693 23.8525 22.9686 22.9945 22.4743C22.1366 21.98 21.0712 21.7328 19.7985 21.7328H16.7644V34.5851ZM46.8131 28.159C46.8131 30.0226 46.4722 31.6249 45.7904 32.9658C45.1086 34.301 44.1739 35.3294 42.9864 36.051C41.8046 36.7669 40.4609 37.1249 38.9552 37.1249C37.4438 37.1249 36.0944 36.7669 34.9069 36.051C33.7251 35.3294 32.7933 34.2982 32.1114 32.9573C31.4296 31.6163 31.0887 30.0169 31.0887 28.159C31.0887 26.2953 31.4296 24.6959 32.1114 23.3607C32.7933 22.0198 33.7251 20.9913 34.9069 20.2754C36.0944 19.5538 37.4438 19.193 38.9552 19.193C40.4609 19.193 41.8046 19.5538 42.9864 20.2754C44.1739 20.9913 45.1086 22.0198 45.7904 23.3607C46.4722 24.6959 46.8131 26.2953 46.8131 28.159ZM44.2052 28.159C44.2052 26.7385 43.9751 25.5425 43.5149 24.5709C43.0603 23.5936 42.4353 22.855 41.6399 22.355C40.8501 21.8493 39.9552 21.5965 38.9552 21.5965C37.9495 21.5965 37.0518 21.8493 36.262 22.355C35.4722 22.855 34.8472 23.5936 34.387 24.5709C33.9325 25.5425 33.7052 26.7385 33.7052 28.159C33.7052 29.5794 33.9325 30.7783 34.387 31.7555C34.8472 32.7271 35.4722 33.4658 36.262 33.9715C37.0518 34.4715 37.9495 34.7215 38.9552 34.7215C39.9552 34.7215 40.8501 34.4715 41.6399 33.9715C42.4353 33.4658 43.0603 32.7271 43.5149 31.7555C43.9751 30.7783 44.2052 29.5794 44.2052 28.159ZM53.5032 36.8862L48.6623 19.4317H51.4322L54.8327 32.9487H54.9947L58.5316 19.4317H61.2759L64.8129 32.9573H64.9748L68.3668 19.4317H71.1452L66.2958 36.8862H63.6452L59.972 23.8124H59.8356L56.1623 36.8862H53.5032ZM87.8346 19.4317V36.8862H85.4141L76.542 24.0851H76.38V36.8862H73.7465V19.4317H76.184L85.0647 32.2499H85.2266V19.4317H87.8346ZM91.8762 36.8862V19.4317H94.5097V34.6192H102.419V36.8862H91.8762ZM120.105 28.159C120.105 30.0226 119.764 31.6249 119.083 32.9658C118.401 34.301 117.466 35.3294 116.279 36.051C115.097 36.7669 113.753 37.1249 112.247 37.1249C110.736 37.1249 109.387 36.7669 108.199 36.051C107.017 35.3294 106.085 34.2982 105.404 32.9573C104.722 31.6163 104.381 30.0169 104.381 28.159C104.381 26.2953 104.722 24.6959 105.404 23.3607C106.085 22.0198 107.017 20.9913 108.199 20.2754C109.387 19.5538 110.736 19.193 112.247 19.193C113.753 19.193 115.097 19.5538 116.279 20.2754C117.466 20.9913 118.401 22.0198 119.083 23.3607C119.764 24.6959 120.105 26.2953 120.105 28.159ZM117.497 28.159C117.497 26.7385 117.267 25.5425 116.807 24.5709C116.352 23.5936 115.727 22.855 114.932 22.355C114.142 21.8493 113.247 21.5965 112.247 21.5965C111.242 21.5965 110.344 21.8493 109.554 22.355C108.764 22.855 108.139 23.5936 107.679 24.5709C107.225 25.5425 106.997 26.7385 106.997 28.159C106.997 29.5794 107.225 30.7783 107.679 31.7555C108.139 32.7271 108.764 33.4658 109.554 33.9715C110.344 34.4715 111.242 34.7215 112.247 34.7215C113.247 34.7215 114.142 34.4715 114.932 33.9715C115.727 33.4658 116.352 32.7271 116.807 31.7555C117.267 30.7783 117.497 29.5794 117.497 28.159ZM124.196 36.8862H121.401L127.682 19.4317H130.724L137.006 36.8862H134.21L129.276 22.6021H129.139L124.196 36.8862ZM124.665 30.051H133.733V32.2669H124.665V30.051ZM145.377 36.8862H139.726V19.4317H145.556C147.266 19.4317 148.735 19.7811 149.962 20.48C151.189 21.1732 152.13 22.1703 152.783 23.4715C153.442 24.7669 153.772 26.3209 153.772 28.1334C153.772 29.9516 153.439 31.5141 152.775 32.8209C152.115 34.1277 151.161 35.1334 149.911 35.8379C148.661 36.5368 147.15 36.8862 145.377 36.8862ZM142.36 34.5851H145.232C146.561 34.5851 147.667 34.3351 148.547 33.8351C149.428 33.3294 150.087 32.5993 150.525 31.6448C150.962 30.6845 151.181 29.5141 151.181 28.1334C151.181 26.7641 150.962 25.6021 150.525 24.6476C150.093 23.693 149.448 22.9686 148.59 22.4743C147.732 21.98 146.667 21.7328 145.394 21.7328H142.36V34.5851ZM173.318 24.0169C173.227 23.2101 172.852 22.5851 172.193 22.1419C171.534 21.693 170.704 21.4686 169.704 21.4686C168.988 21.4686 168.369 21.5823 167.846 21.8095C167.324 22.0311 166.917 22.3379 166.628 22.73C166.344 23.1163 166.202 23.5567 166.202 24.051C166.202 24.4658 166.298 24.8237 166.491 25.1249C166.69 25.426 166.949 25.6788 167.267 25.8834C167.591 26.0823 167.937 26.2499 168.307 26.3862C168.676 26.5169 169.031 26.6249 169.372 26.7101L171.077 27.1533C171.633 27.2896 172.204 27.4743 172.79 27.7073C173.375 27.9402 173.917 28.247 174.417 28.6277C174.917 29.0084 175.321 29.48 175.628 30.0425C175.94 30.605 176.096 31.2783 176.096 32.0624C176.096 33.051 175.841 33.9288 175.329 34.6959C174.824 35.4629 174.088 36.068 173.122 36.5112C172.162 36.9544 171 37.176 169.636 37.176C168.329 37.176 167.199 36.9686 166.244 36.5538C165.29 36.1391 164.542 35.551 164.003 34.7896C163.463 34.0226 163.165 33.1135 163.108 32.0624H165.75C165.801 32.693 166.005 33.2186 166.363 33.6391C166.727 34.0538 167.19 34.3635 167.753 34.568C168.321 34.7669 168.943 34.8663 169.619 34.8663C170.363 34.8663 171.025 34.7499 171.605 34.5169C172.19 34.2783 172.65 33.9487 172.986 33.5283C173.321 33.1021 173.488 32.605 173.488 32.0368C173.488 31.5198 173.341 31.0965 173.045 30.7669C172.755 30.4374 172.361 30.1646 171.861 29.9487C171.366 29.7328 170.807 29.5425 170.182 29.3777L168.119 28.8152C166.721 28.4345 165.613 27.8749 164.795 27.1362C163.983 26.3976 163.577 25.4203 163.577 24.2044C163.577 23.1987 163.849 22.3209 164.395 21.5709C164.94 20.8209 165.679 20.2385 166.611 19.8237C167.542 19.4033 168.594 19.193 169.764 19.193C170.946 19.193 171.988 19.4004 172.892 19.8152C173.801 20.23 174.517 20.801 175.04 21.5283C175.562 22.2499 175.835 23.0794 175.858 24.0169H173.318ZM179.443 36.8862V19.4317H182.077V27.0169H190.779V19.4317H193.421V36.8862H190.779V29.2754H182.077V36.8862H179.443ZM212.618 28.159C212.618 30.0226 212.277 31.6249 211.595 32.9658C210.913 34.301 209.979 35.3294 208.791 36.051C207.609 36.7669 206.266 37.1249 204.76 37.1249C203.249 37.1249 201.899 36.7669 200.712 36.051C199.53 35.3294 198.598 34.2982 197.916 32.9573C197.234 31.6163 196.893 30.0169 196.893 28.159C196.893 26.2953 197.234 24.6959 197.916 23.3607C198.598 22.0198 199.53 20.9913 200.712 20.2754C201.899 19.5538 203.249 19.193 204.76 19.193C206.266 19.193 207.609 19.5538 208.791 20.2754C209.979 20.9913 210.913 22.0198 211.595 23.3607C212.277 24.6959 212.618 26.2953 212.618 28.159ZM210.01 28.159C210.01 26.7385 209.78 25.5425 209.32 24.5709C208.865 23.5936 208.24 22.855 207.445 22.355C206.655 21.8493 205.76 21.5965 204.76 21.5965C203.754 21.5965 202.856 21.8493 202.067 22.355C201.277 22.855 200.652 23.5936 200.192 24.5709C199.737 25.5425 199.51 26.7385 199.51 28.159C199.51 29.5794 199.737 30.7783 200.192 31.7555C200.652 32.7271 201.277 33.4658 202.067 33.9715C202.856 34.4715 203.754 34.7215 204.76 34.7215C205.76 34.7215 206.655 34.4715 207.445 33.9715C208.24 33.4658 208.865 32.7271 209.32 31.7555C209.78 30.7783 210.01 29.5794 210.01 28.159ZM216.101 36.8862V19.4317H222.323C223.681 19.4317 224.806 19.6788 225.698 20.1732C226.59 20.6675 227.257 21.3436 227.701 22.2016C228.144 23.0538 228.365 24.0141 228.365 25.0823C228.365 26.1561 228.141 27.122 227.692 27.98C227.249 28.8323 226.578 29.5084 225.681 30.0084C224.789 30.5027 223.667 30.7499 222.314 30.7499H218.036V28.5169H222.076C222.934 28.5169 223.63 28.3692 224.164 28.0737C224.698 27.7726 225.09 27.3635 225.34 26.8465C225.59 26.3294 225.715 25.7413 225.715 25.0823C225.715 24.4232 225.59 23.8379 225.34 23.3266C225.09 22.8152 224.695 22.4146 224.155 22.1249C223.621 21.8351 222.917 21.6902 222.042 21.6902H218.735V36.8862H216.101ZM241.173 24.0169C241.082 23.2101 240.707 22.5851 240.048 22.1419C239.389 21.693 238.559 21.4686 237.559 21.4686C236.843 21.4686 236.224 21.5823 235.701 21.8095C235.178 22.0311 234.772 22.3379 234.482 22.73C234.198 23.1163 234.056 23.5567 234.056 24.051C234.056 24.4658 234.153 24.8237 234.346 25.1249C234.545 25.426 234.803 25.6788 235.122 25.8834C235.445 26.0823 235.792 26.2499 236.161 26.3862C236.531 26.5169 236.886 26.6249 237.227 26.7101L238.931 27.1533C239.488 27.2896 240.059 27.4743 240.644 27.7073C241.229 27.9402 241.772 28.247 242.272 28.6277C242.772 29.0084 243.176 29.48 243.482 30.0425C243.795 30.605 243.951 31.2783 243.951 32.0624C243.951 33.051 243.695 33.9288 243.184 34.6959C242.678 35.4629 241.943 36.068 240.977 36.5112C240.016 36.9544 238.854 37.176 237.491 37.176C236.184 37.176 235.053 36.9686 234.099 36.5538C233.144 36.1391 232.397 35.551 231.857 34.7896C231.318 34.0226 231.019 33.1135 230.962 32.0624H233.604C233.656 32.693 233.86 33.2186 234.218 33.6391C234.582 34.0538 235.045 34.3635 235.607 34.568C236.176 34.7669 236.798 34.8663 237.474 34.8663C238.218 34.8663 238.88 34.7499 239.46 34.5169C240.045 34.2783 240.505 33.9487 240.84 33.5283C241.176 33.1021 241.343 32.605 241.343 32.0368C241.343 31.5198 241.195 31.0965 240.9 30.7669C240.61 30.4374 240.215 30.1646 239.715 29.9487C239.221 29.7328 238.661 29.5425 238.036 29.3777L235.974 28.8152C234.576 28.4345 233.468 27.8749 232.65 27.1362C231.837 26.3976 231.431 25.4203 231.431 24.2044C231.431 23.1987 231.704 22.3209 232.249 21.5709C232.795 20.8209 233.533 20.2385 234.465 19.8237C235.397 19.4033 236.448 19.193 237.619 19.193C238.801 19.193 239.843 19.4004 240.747 19.8152C241.656 20.23 242.372 20.801 242.894 21.5283C243.417 22.2499 243.69 23.0794 243.712 24.0169H241.173ZM245.952 19.4317H248.943L253.503 27.3663H253.69L258.25 19.4317H261.241L254.909 30.034V36.8862H252.284V30.034L245.952 19.4317ZM284.567 19.4317V36.8862H282.147L273.275 24.0851H273.113V36.8862H270.479V19.4317H272.917L281.798 32.2499H281.959V19.4317H284.567ZM303.771 28.159C303.771 30.0226 303.43 31.6249 302.748 32.9658C302.066 34.301 301.132 35.3294 299.944 36.051C298.762 36.7669 297.419 37.1249 295.913 37.1249C294.402 37.1249 293.052 36.7669 291.865 36.051C290.683 35.3294 289.751 34.2982 289.069 32.9573C288.387 31.6163 288.047 30.0169 288.047 28.159C288.047 26.2953 288.387 24.6959 289.069 23.3607C289.751 22.0198 290.683 20.9913 291.865 20.2754C293.052 19.5538 294.402 19.193 295.913 19.193C297.419 19.193 298.762 19.5538 299.944 20.2754C301.132 20.9913 302.066 22.0198 302.748 23.3607C303.43 24.6959 303.771 26.2953 303.771 28.159ZM301.163 28.159C301.163 26.7385 300.933 25.5425 300.473 24.5709C300.018 23.5936 299.393 22.855 298.598 22.355C297.808 21.8493 296.913 21.5965 295.913 21.5965C294.907 21.5965 294.01 21.8493 293.22 22.355C292.43 22.855 291.805 23.5936 291.345 24.5709C290.89 25.5425 290.663 26.7385 290.663 28.159C290.663 29.5794 290.89 30.7783 291.345 31.7555C291.805 32.7271 292.43 33.4658 293.22 33.9715C294.01 34.4715 294.907 34.7215 295.913 34.7215C296.913 34.7215 297.808 34.4715 298.598 33.9715C299.393 33.4658 300.018 32.7271 300.473 31.7555C300.933 30.7783 301.163 29.5794 301.163 28.159ZM310.461 36.8862L305.62 19.4317H308.39L311.791 32.9487H311.952L315.489 19.4317H318.234L321.771 32.9573H321.933L325.325 19.4317H328.103L323.254 36.8862H320.603L316.93 23.8124H316.793L313.12 36.8862H310.461Z" fill="white"/>
</svg>
