<svg width="255" height="246" viewBox="0 0 255 246" fill="none" xmlns="http://www.w3.org/2000/svg">
<path d="M51.497 211.393L54.4618 194.331L58.9032 194.342C60.2235 194.342 61.3681 194.682 62.3368 195.362C63.3056 196.034 64.0048 196.967 64.4345 198.163C64.872 199.35 65.0009 200.659 64.8212 202.089L64.6103 203.506C64.2509 205.874 63.3056 207.78 61.7743 209.225C60.2431 210.671 58.3642 211.393 56.1376 211.393H51.497ZM55.6806 195.561L53.1376 210.174L56.1845 210.186C57.3798 210.186 58.4696 209.913 59.454 209.366C60.4384 208.819 61.2509 208.049 61.8915 207.057C62.54 206.057 62.9618 204.932 63.1571 203.682C63.3603 202.424 63.4657 201.557 63.4735 201.081C63.4892 200.604 63.4657 200.143 63.4032 199.698C63.2235 198.448 62.747 197.456 61.9735 196.721C61.2001 195.987 60.2001 195.604 58.9735 195.573L55.6806 195.561ZM71.5829 211.628C70.5673 211.612 69.6884 211.331 68.9462 210.784C68.204 210.229 67.6571 209.479 67.3056 208.534C66.9618 207.581 66.8407 206.553 66.9423 205.452L66.9775 205.053C67.0868 203.881 67.4345 202.768 68.0204 201.714C68.6064 200.651 69.3485 199.842 70.247 199.288C71.1454 198.725 72.1064 198.456 73.1298 198.479C74.0751 198.495 74.872 198.753 75.5204 199.253C76.1767 199.753 76.6532 200.448 76.9501 201.339C77.247 202.229 77.3407 203.214 77.2314 204.292L77.1376 205.147H68.3603L68.3251 205.428C68.2079 206.28 68.2704 207.096 68.5126 207.878C68.7548 208.651 69.1493 209.268 69.6962 209.729C70.2509 210.182 70.915 210.417 71.6884 210.432C72.4384 210.456 73.1142 210.311 73.7157 209.999C74.3173 209.686 74.872 209.268 75.3798 208.745L76.2001 209.413C75.6298 210.147 74.9501 210.706 74.161 211.089C73.3798 211.464 72.5204 211.643 71.5829 211.628ZM73.0595 199.674C72.0439 199.635 71.1337 199.995 70.329 200.753C69.5243 201.51 68.9189 202.577 68.5126 203.952L75.872 203.964L75.9071 203.788C76.0478 202.678 75.8525 201.725 75.3212 200.928C74.79 200.124 74.036 199.706 73.0595 199.674ZM80.2548 211.393H78.8485L81.9775 193.393H83.3837L80.2548 211.393ZM85.5985 211.393H84.1923L86.4071 198.714H87.8017L85.5985 211.393ZM86.7939 195.046C86.8329 194.538 87.1689 194.217 87.8017 194.085C88.1064 194.139 88.3212 194.237 88.4462 194.378C88.579 194.51 88.665 194.733 88.704 195.046C88.6259 195.342 88.5126 195.561 88.3642 195.702C88.2157 195.835 87.9931 195.932 87.6962 195.995C87.0634 195.901 86.7626 195.585 86.7939 195.046ZM93.6259 209.413L99.04 198.714H100.517L93.9423 211.393H92.8056L90.1689 198.714H91.5517L93.6259 209.413ZM105.567 211.628C104.552 211.612 103.673 211.331 102.931 210.784C102.188 210.229 101.642 209.479 101.29 208.534C100.946 207.581 100.825 206.553 100.927 205.452L100.962 205.053C101.071 203.881 101.419 202.768 102.005 201.714C102.591 200.651 103.333 199.842 104.231 199.288C105.13 198.725 106.091 198.456 107.114 198.479C108.059 198.495 108.856 198.753 109.505 199.253C110.161 199.753 110.638 200.448 110.934 201.339C111.231 202.229 111.325 203.214 111.216 204.292L111.122 205.147H102.345L102.309 205.428C102.192 206.28 102.255 207.096 102.497 207.878C102.739 208.651 103.134 209.268 103.681 209.729C104.235 210.182 104.899 210.417 105.673 210.432C106.423 210.456 107.099 210.311 107.7 209.999C108.302 209.686 108.856 209.268 109.364 208.745L110.184 209.413C109.614 210.147 108.934 210.706 108.145 211.089C107.364 211.464 106.505 211.643 105.567 211.628ZM107.044 199.674C106.028 199.635 105.118 199.995 104.313 200.753C103.509 201.51 102.903 202.577 102.497 203.952L109.856 203.964L109.892 203.788C110.032 202.678 109.837 201.725 109.306 200.928C108.774 200.124 108.02 199.706 107.044 199.674ZM120.427 199.897C120.122 199.835 119.813 199.799 119.501 199.792C118.61 199.792 117.794 200.065 117.052 200.612C116.309 201.151 115.813 201.839 115.563 202.674L114.063 211.393H112.681L114.884 198.714H116.255L115.833 200.729C116.294 199.979 116.849 199.409 117.497 199.018C118.153 198.628 118.872 198.44 119.653 198.456C119.927 198.456 120.247 198.51 120.614 198.62L120.427 199.897ZM125.079 209.331L130.505 198.714H132.063L124.329 213.432C123.759 214.573 123.153 215.381 122.513 215.858C121.88 216.335 121.173 216.565 120.392 216.549C120.095 216.534 119.72 216.471 119.267 216.362L119.407 215.214L120.11 215.296C121.423 215.35 122.458 214.577 123.216 212.975L124.106 211.206L121.657 198.714H123.122L125.079 209.331ZM141.274 208.475V209.471L141.731 208.381L146.36 198.714H147.556L148.809 208.405L148.88 209.6L149.36 208.393L153.556 198.714H155.044L149.255 211.393H148.059L146.665 201.339L146.653 200.635L146.384 201.35L141.532 211.393H140.337L138.989 198.714L140.302 198.702L141.274 208.475ZM157.036 211.393H155.63L157.845 198.714H159.239L157.036 211.393ZM158.231 195.046C158.27 194.538 158.606 194.217 159.239 194.085C159.544 194.139 159.759 194.237 159.884 194.378C160.017 194.51 160.102 194.733 160.142 195.046C160.063 195.342 159.95 195.561 159.802 195.702C159.653 195.835 159.431 195.932 159.134 195.995C158.501 195.901 158.2 195.585 158.231 195.046ZM165.731 195.467L165.169 198.714H167.712L167.513 199.862H164.97L163.563 208.323L163.54 209.049C163.54 209.901 163.931 210.339 164.712 210.362C164.954 210.37 165.333 210.342 165.849 210.28L165.79 211.428C165.329 211.561 164.86 211.62 164.384 211.604C163.563 211.589 162.966 211.303 162.591 210.749C162.216 210.186 162.079 209.374 162.181 208.311L163.575 199.862H161.302L161.513 198.714H163.763L164.337 195.467H165.731ZM171.544 200.858C172.763 199.241 174.2 198.448 175.856 198.479C177.075 198.51 177.962 198.936 178.517 199.756C179.071 200.577 179.267 201.706 179.102 203.143L177.72 211.393H176.337L177.72 203.12C177.767 202.674 177.774 202.245 177.743 201.831C177.61 200.44 176.852 199.725 175.47 199.686C174.649 199.671 173.884 199.917 173.173 200.424C172.462 200.924 171.837 201.682 171.298 202.698L169.798 211.393H168.415L171.544 193.393H172.927L171.544 200.858ZM182.864 211.393H181.458L183.673 198.714H185.067L182.864 211.393ZM184.059 195.046C184.099 194.538 184.434 194.217 185.067 194.085C185.372 194.139 185.587 194.237 185.712 194.378C185.845 194.51 185.931 194.733 185.97 195.046C185.892 195.342 185.778 195.561 185.63 195.702C185.481 195.835 185.259 195.932 184.962 195.995C184.329 195.901 184.028 195.585 184.059 195.046ZM190.188 198.714L189.767 200.881C190.329 200.1 190.977 199.503 191.712 199.089C192.454 198.667 193.247 198.464 194.091 198.479C195.309 198.51 196.196 198.936 196.751 199.756C197.306 200.577 197.501 201.706 197.337 203.143L195.954 211.393H194.571L195.954 203.12C196.001 202.674 196.009 202.245 195.977 201.831C195.845 200.44 195.087 199.725 193.704 199.686C192.884 199.671 192.118 199.917 191.407 200.424C190.696 200.924 190.071 201.682 189.532 202.698L188.032 211.393H186.649L188.852 198.714H190.188ZM58.7626 224.405L50.0907 239.393H46.4462L55.0946 225.073H46.9384L47.372 222.331H59.079L58.7626 224.405ZM68.4892 236.475V237.471L68.9462 236.381L73.5751 226.714H74.7704L76.0243 236.405L76.0946 237.6L76.5751 236.393L80.7704 226.714H82.2587L76.4696 239.393H75.2743L73.8798 229.339L73.8681 228.635L73.5985 229.35L68.747 239.393H67.5517L66.204 226.714L67.5165 226.702L68.4892 236.475ZM83.0321 232.936C83.1728 231.71 83.5478 230.589 84.1571 229.573C84.7665 228.549 85.5243 227.772 86.4306 227.241C87.3446 226.71 88.3329 226.456 89.3954 226.479C90.4423 226.495 91.3329 226.784 92.0673 227.346C92.8095 227.901 93.3485 228.663 93.6845 229.631C94.0282 230.592 94.1454 231.659 94.036 232.831L94.0126 233.053C93.7782 235.053 93.0673 236.659 91.8798 237.87C90.7001 239.081 89.2821 239.667 87.6259 239.628C86.204 239.604 85.0673 239.081 84.2157 238.057C83.3642 237.034 82.9462 235.682 82.9618 234.003L82.997 233.335L83.0321 232.936ZM84.3915 233.335C84.29 234.264 84.3564 235.124 84.5907 235.913C84.8329 236.694 85.2157 237.307 85.7392 237.753C86.2626 238.198 86.915 238.432 87.6962 238.456C88.54 238.471 89.3095 238.256 90.0048 237.811C90.7079 237.366 91.286 236.737 91.7392 235.924C92.1923 235.112 92.4853 234.214 92.6181 233.229L92.6532 232.842C92.7939 231.335 92.5595 230.104 91.9501 229.151C91.3485 228.19 90.4735 227.698 89.3251 227.674C88.0751 227.635 86.9931 228.12 86.079 229.128C85.1728 230.128 84.6181 231.46 84.415 233.124L84.3915 233.335ZM103.61 227.897C103.306 227.835 102.997 227.799 102.684 227.792C101.794 227.792 100.977 228.065 100.235 228.612C99.4931 229.151 98.997 229.839 98.747 230.674L97.247 239.393H95.8642L98.0673 226.714H99.4384L99.0165 228.729C99.4775 227.979 100.032 227.409 100.681 227.018C101.337 226.628 102.056 226.44 102.837 226.456C103.11 226.456 103.431 226.51 103.798 226.62L103.61 227.897ZM107.911 233.03L106.036 234.612L105.204 239.393H103.809L106.938 221.393H108.333L106.341 232.807L107.794 231.471L113.313 226.714H115.177L108.942 232.116L113.313 239.393H111.767L107.911 233.03ZM116.899 239.393H115.493L117.708 226.714H119.102L116.899 239.393ZM118.095 223.046C118.134 222.538 118.47 222.217 119.102 222.085C119.407 222.139 119.622 222.237 119.747 222.378C119.88 222.51 119.966 222.733 120.005 223.046C119.927 223.342 119.813 223.561 119.665 223.702C119.517 223.835 119.294 223.932 118.997 223.995C118.364 223.901 118.063 223.585 118.095 223.046ZM124.224 226.714L123.802 228.881C124.364 228.1 125.013 227.503 125.747 227.089C126.489 226.667 127.282 226.464 128.126 226.479C129.345 226.51 130.231 226.936 130.786 227.756C131.341 228.577 131.536 229.706 131.372 231.143L129.989 239.393H128.606L129.989 231.12C130.036 230.674 130.044 230.245 130.013 229.831C129.88 228.44 129.122 227.725 127.739 227.686C126.919 227.671 126.153 227.917 125.442 228.424C124.731 228.924 124.106 229.682 123.567 230.698L122.067 239.393H120.684L122.888 226.714H124.224ZM139.915 226.467C140.673 226.491 141.364 226.671 141.989 227.006C142.614 227.342 143.106 227.854 143.466 228.542L143.899 226.714H145.2L143.067 239.171C142.919 240.233 142.583 241.171 142.059 241.983C141.536 242.796 140.864 243.417 140.044 243.846C139.231 244.284 138.325 244.487 137.325 244.456C136.528 244.44 135.767 244.241 135.04 243.858C134.306 243.467 133.716 242.924 133.27 242.229L134.138 241.409C134.942 242.62 135.993 243.241 137.29 243.272C138.446 243.303 139.411 242.952 140.184 242.217C140.966 241.491 141.458 240.499 141.661 239.241L141.966 237.764C140.841 239.053 139.485 239.674 137.899 239.628C136.712 239.596 135.786 239.143 135.122 238.268C134.466 237.385 134.122 236.186 134.091 234.671C134.044 233.272 134.278 231.889 134.794 230.522C135.309 229.155 136.009 228.131 136.892 227.452C137.782 226.764 138.79 226.436 139.915 226.467ZM135.556 233.264L135.485 234.354C135.462 235.635 135.684 236.628 136.153 237.331C136.622 238.026 137.313 238.389 138.227 238.421C139.009 238.452 139.739 238.268 140.419 237.87C141.099 237.471 141.684 236.881 142.177 236.1L143.173 230.182C142.962 229.424 142.595 228.827 142.071 228.389C141.556 227.944 140.892 227.71 140.079 227.686C138.884 227.647 137.892 228.108 137.102 229.069C136.321 230.03 135.806 231.428 135.556 233.264ZM152.981 233.018C153.161 231.69 153.524 230.514 154.071 229.491C154.618 228.46 155.286 227.694 156.075 227.194C156.872 226.694 157.763 226.456 158.747 226.479C159.497 226.495 160.181 226.671 160.798 227.006C161.415 227.335 161.903 227.835 162.263 228.506L163.552 221.393H164.934L161.806 239.393H160.505L160.821 237.706C159.72 239.034 158.352 239.674 156.72 239.628C155.54 239.596 154.614 239.139 153.942 238.256C153.278 237.366 152.931 236.171 152.899 234.671C152.884 234.186 152.903 233.717 152.958 233.264L152.981 233.018ZM154.388 233.253C154.325 233.776 154.302 234.335 154.317 234.928C154.349 235.999 154.595 236.842 155.056 237.46C155.524 238.069 156.188 238.389 157.048 238.421C157.915 238.444 158.677 238.245 159.333 237.823C159.989 237.401 160.544 236.839 160.997 236.135L162.017 230.159C161.79 229.401 161.415 228.807 160.892 228.378C160.376 227.94 159.716 227.71 158.911 227.686C157.724 227.647 156.731 228.104 155.934 229.057C155.145 230.003 154.638 231.319 154.411 233.006L154.388 233.253ZM173.36 239.393C173.321 239.096 173.309 238.799 173.325 238.503L173.431 237.624C172.845 238.256 172.173 238.753 171.415 239.112C170.665 239.471 169.852 239.643 168.977 239.628C167.907 239.612 167.036 239.276 166.364 238.62C165.7 237.956 165.403 237.124 165.474 236.124C165.536 235.288 165.821 234.565 166.329 233.956C166.845 233.339 167.575 232.862 168.52 232.526C169.466 232.182 170.524 232.01 171.696 232.01L174.286 232.022L174.497 230.569C174.591 229.702 174.403 229.006 173.934 228.483C173.466 227.96 172.774 227.682 171.86 227.651C170.938 227.635 170.134 227.866 169.446 228.342C168.767 228.811 168.341 229.432 168.169 230.206H166.798C166.954 229.096 167.524 228.194 168.509 227.499C169.493 226.796 170.657 226.452 172.001 226.467C173.306 226.499 174.309 226.893 175.013 227.651C175.724 228.409 176.013 229.393 175.88 230.604L174.825 236.979L174.731 237.999C174.708 238.421 174.739 238.839 174.825 239.253L174.802 239.393H173.36ZM169.212 238.397C170.071 238.428 170.892 238.225 171.673 237.788C172.462 237.342 173.114 236.714 173.63 235.901L174.11 233.1L171.872 233.089C170.45 233.089 169.29 233.342 168.392 233.85C167.493 234.35 166.997 235.069 166.903 236.006C166.833 236.694 167.013 237.26 167.442 237.706C167.88 238.151 168.47 238.381 169.212 238.397ZM182.114 237.331L187.54 226.714H189.099L181.364 241.432C180.794 242.573 180.188 243.381 179.548 243.858C178.915 244.335 178.208 244.565 177.427 244.549C177.13 244.534 176.755 244.471 176.302 244.362L176.442 243.214L177.145 243.296C178.458 243.35 179.493 242.577 180.251 240.975L181.142 239.206L178.692 226.714H180.157L182.114 237.331ZM197.067 236.089C197.192 235.01 196.536 234.229 195.099 233.745L193.083 233.147C191.231 232.522 190.356 231.479 190.458 230.018C190.513 228.964 190.997 228.108 191.911 227.452C192.833 226.788 193.927 226.464 195.192 226.479C196.434 226.495 197.442 226.846 198.216 227.534C198.989 228.214 199.349 229.124 199.294 230.264H197.911C197.958 229.506 197.72 228.889 197.196 228.413C196.681 227.936 195.993 227.69 195.134 227.674C194.243 227.674 193.493 227.885 192.884 228.307C192.274 228.721 191.931 229.272 191.852 229.96C191.735 230.967 192.352 231.674 193.704 232.081L195.169 232.503L195.954 232.772C197.72 233.436 198.552 234.518 198.45 236.018C198.388 237.034 197.946 237.87 197.126 238.526C196.313 239.174 195.263 239.538 193.974 239.616L193.493 239.628C192.642 239.612 191.872 239.448 191.184 239.135C190.497 238.815 189.97 238.37 189.602 237.799C189.235 237.229 189.075 236.573 189.122 235.831L190.517 235.842C190.517 236.639 190.786 237.268 191.325 237.729C191.864 238.19 192.606 238.428 193.552 238.444C194.489 238.444 195.286 238.233 195.942 237.811C196.599 237.381 196.974 236.807 197.067 236.089ZM205.306 227.639L201.755 226.374L202.306 225.237L205.856 226.69L206.571 222.331H207.79L206.934 226.655L210.849 225.19L211.024 226.432L206.993 227.78L208.938 231.249L207.895 231.952L206.091 228.378L203.161 231.905L202.247 231.131L205.306 227.639Z" fill="white"/>
<path d="M9.80516 148.909H18.2895C20.0291 148.909 21.5239 149.17 22.7739 149.69C24.0343 150.211 25.0031 150.982 25.6802 152.003C26.3572 153.024 26.6958 154.279 26.6958 155.769C26.6958 156.987 26.4875 158.034 26.0708 158.909C25.6645 159.774 25.0864 160.498 24.3364 161.081C23.5968 161.654 22.727 162.112 21.727 162.456L20.2427 163.237H12.8677L12.8364 159.581H18.3208C19.1437 159.581 19.826 159.435 20.3677 159.144C20.9093 158.852 21.3156 158.446 21.5864 157.925C21.8677 157.404 22.0083 156.8 22.0083 156.112C22.0083 155.383 21.8729 154.753 21.602 154.222C21.3312 153.69 20.9197 153.284 20.3677 153.003C19.8156 152.722 19.1229 152.581 18.2895 152.581H14.4927V171.659H9.80516V148.909ZM22.5239 171.659L17.3364 161.519L22.2895 161.487L27.5395 171.44V171.659H22.5239ZM37.8052 171.972C36.4927 171.972 35.3156 171.763 34.2739 171.347C33.2322 170.92 32.3468 170.331 31.6177 169.581C30.8989 168.831 30.3468 167.961 29.9614 166.972C29.576 165.972 29.3833 164.909 29.3833 163.784V163.159C29.3833 161.878 29.5656 160.706 29.9302 159.644C30.2947 158.581 30.8156 157.659 31.4927 156.878C32.1802 156.097 33.0135 155.498 33.9927 155.081C34.9718 154.654 36.076 154.44 37.3052 154.44C38.5031 154.44 39.5656 154.638 40.4927 155.034C41.4197 155.43 42.1958 155.993 42.8208 156.722C43.4562 157.451 43.9354 158.326 44.2583 159.347C44.5812 160.357 44.7427 161.482 44.7427 162.722V164.597H31.3052V161.597H40.3208V161.253C40.3208 160.628 40.2062 160.071 39.977 159.581C39.7583 159.081 39.425 158.685 38.977 158.394C38.5291 158.102 37.9562 157.956 37.2583 157.956C36.6645 157.956 36.1541 158.086 35.727 158.347C35.3 158.607 34.951 158.972 34.6802 159.44C34.4197 159.909 34.2218 160.461 34.0864 161.097C33.9614 161.722 33.8989 162.409 33.8989 163.159V163.784C33.8989 164.461 33.9927 165.086 34.1802 165.659C34.3781 166.232 34.6541 166.727 35.0083 167.144C35.3729 167.56 35.8104 167.883 36.3208 168.112C36.8416 168.341 37.4302 168.456 38.0864 168.456C38.8989 168.456 39.6541 168.3 40.352 167.987C41.0604 167.664 41.6697 167.18 42.1802 166.534L44.3677 168.909C44.0135 169.42 43.5291 169.909 42.9145 170.378C42.3104 170.847 41.5812 171.232 40.727 171.534C39.8729 171.826 38.8989 171.972 37.8052 171.972ZM52.0552 147.659V171.659H47.5395V147.659H52.0552ZM60.5239 154.753V171.659H56.0083V154.753H60.5239ZM55.727 150.347C55.727 149.69 55.9562 149.149 56.4145 148.722C56.8729 148.295 57.4875 148.081 58.2583 148.081C59.0187 148.081 59.6281 148.295 60.0864 148.722C60.5552 149.149 60.7895 149.69 60.7895 150.347C60.7895 151.003 60.5552 151.545 60.0864 151.972C59.6281 152.399 59.0187 152.612 58.2583 152.612C57.4875 152.612 56.8729 152.399 56.4145 151.972C55.9562 151.545 55.727 151.003 55.727 150.347ZM73.3677 167.847V160.315C73.3677 159.774 73.2791 159.31 73.102 158.925C72.925 158.529 72.6489 158.222 72.2739 158.003C71.9093 157.784 71.4354 157.675 70.852 157.675C70.352 157.675 69.9197 157.763 69.5552 157.94C69.1906 158.107 68.9093 158.352 68.7114 158.675C68.5135 158.987 68.4145 159.357 68.4145 159.784H63.9145C63.9145 159.065 64.0812 158.383 64.4145 157.737C64.7479 157.091 65.2322 156.524 65.8677 156.034C66.5031 155.534 67.2583 155.144 68.1333 154.862C69.0187 154.581 70.0083 154.44 71.102 154.44C72.4145 154.44 73.5812 154.659 74.602 155.097C75.6229 155.534 76.425 156.19 77.0083 157.065C77.602 157.94 77.8989 159.034 77.8989 160.347V167.581C77.8989 168.508 77.9562 169.269 78.0708 169.862C78.1854 170.446 78.352 170.956 78.5708 171.394V171.659H74.0239C73.8052 171.201 73.6385 170.628 73.5239 169.94C73.4197 169.243 73.3677 168.545 73.3677 167.847ZM73.9614 161.362L73.9927 163.909H71.477C70.8833 163.909 70.3677 163.977 69.9302 164.112C69.4927 164.248 69.1333 164.44 68.852 164.69C68.5708 164.93 68.3625 165.211 68.227 165.534C68.102 165.857 68.0395 166.211 68.0395 166.597C68.0395 166.982 68.1281 167.331 68.3052 167.644C68.4822 167.946 68.7375 168.185 69.0708 168.362C69.4041 168.529 69.7947 168.612 70.2427 168.612C70.9197 168.612 71.5083 168.477 72.0083 168.206C72.5083 167.935 72.8937 167.602 73.1645 167.206C73.4458 166.81 73.5916 166.435 73.602 166.081L74.7895 167.987C74.6229 168.414 74.3937 168.857 74.102 169.315C73.8208 169.774 73.4614 170.206 73.0239 170.612C72.5864 171.008 72.0604 171.336 71.4458 171.597C70.8312 171.847 70.102 171.972 69.2583 171.972C68.1854 171.972 67.2114 171.758 66.3364 171.331C65.4718 170.894 64.7843 170.295 64.2739 169.534C63.7739 168.763 63.5239 167.888 63.5239 166.909C63.5239 166.024 63.6906 165.237 64.0239 164.55C64.3572 163.862 64.8468 163.284 65.4927 162.815C66.1489 162.336 66.9666 161.977 67.9458 161.737C68.925 161.487 70.0604 161.362 71.352 161.362H73.9614ZM81.3677 147.659H85.8677V167.784L85.4145 171.659H81.3677V147.659ZM96.5708 163.034V163.362C96.5708 164.623 96.4354 165.779 96.1645 166.831C95.9041 167.883 95.4979 168.795 94.9458 169.565C94.3937 170.326 93.7062 170.92 92.8833 171.347C92.0708 171.763 91.1125 171.972 90.0083 171.972C88.977 171.972 88.0812 171.763 87.3208 171.347C86.5708 170.93 85.9406 170.341 85.4302 169.581C84.9197 168.821 84.5083 167.93 84.1958 166.909C83.8833 165.888 83.6489 164.774 83.4927 163.565V162.847C83.6489 161.638 83.8833 160.524 84.1958 159.503C84.5083 158.482 84.9197 157.591 85.4302 156.831C85.9406 156.071 86.5708 155.482 87.3208 155.065C88.0708 154.649 88.9562 154.44 89.977 154.44C91.0916 154.44 92.0604 154.654 92.8833 155.081C93.7166 155.498 94.4041 156.091 94.9458 156.862C95.4979 157.623 95.9041 158.529 96.1645 159.581C96.4354 160.623 96.5708 161.774 96.5708 163.034ZM92.0708 163.362V163.034C92.0708 162.347 92.0187 161.701 91.9145 161.097C91.8208 160.482 91.6541 159.946 91.4145 159.487C91.175 159.019 90.8468 158.649 90.4302 158.378C90.0239 158.107 89.4979 157.972 88.852 157.972C88.2375 157.972 87.7166 158.076 87.2895 158.284C86.8625 158.493 86.5083 158.784 86.227 159.159C85.9562 159.534 85.7531 159.982 85.6177 160.503C85.4822 161.013 85.3989 161.576 85.3677 162.19V164.237C85.3989 165.06 85.5343 165.789 85.7739 166.425C86.0239 167.05 86.3989 167.545 86.8989 167.909C87.4093 168.263 88.0708 168.44 88.8833 168.44C89.5187 168.44 90.0447 168.315 90.4614 168.065C90.8781 167.815 91.201 167.461 91.4302 167.003C91.6697 166.545 91.8364 166.008 91.9302 165.394C92.0239 164.769 92.0708 164.091 92.0708 163.362ZM104.118 147.659V171.659H99.602V147.659H104.118ZM115.618 171.972C114.305 171.972 113.128 171.763 112.086 171.347C111.045 170.92 110.159 170.331 109.43 169.581C108.711 168.831 108.159 167.961 107.774 166.972C107.388 165.972 107.196 164.909 107.196 163.784V163.159C107.196 161.878 107.378 160.706 107.743 159.644C108.107 158.581 108.628 157.659 109.305 156.878C109.993 156.097 110.826 155.498 111.805 155.081C112.784 154.654 113.888 154.44 115.118 154.44C116.316 154.44 117.378 154.638 118.305 155.034C119.232 155.43 120.008 155.993 120.633 156.722C121.269 157.451 121.748 158.326 122.071 159.347C122.394 160.357 122.555 161.482 122.555 162.722V164.597H109.118V161.597H118.133V161.253C118.133 160.628 118.019 160.071 117.79 159.581C117.571 159.081 117.237 158.685 116.79 158.394C116.342 158.102 115.769 157.956 115.071 157.956C114.477 157.956 113.967 158.086 113.54 158.347C113.112 158.607 112.763 158.972 112.493 159.44C112.232 159.909 112.034 160.461 111.899 161.097C111.774 161.722 111.711 162.409 111.711 163.159V163.784C111.711 164.461 111.805 165.086 111.993 165.659C112.191 166.232 112.467 166.727 112.821 167.144C113.185 167.56 113.623 167.883 114.133 168.112C114.654 168.341 115.243 168.456 115.899 168.456C116.711 168.456 117.467 168.3 118.165 167.987C118.873 167.664 119.482 167.18 119.993 166.534L122.18 168.909C121.826 169.42 121.342 169.909 120.727 170.378C120.123 170.847 119.394 171.232 118.54 171.534C117.685 171.826 116.711 171.972 115.618 171.972ZM140.352 171.659H135.399L135.43 168.003H140.352C141.581 168.003 142.618 167.727 143.461 167.175C144.305 166.612 144.941 165.795 145.368 164.722C145.805 163.649 146.024 162.352 146.024 160.831V159.722C146.024 158.555 145.899 157.529 145.649 156.644C145.409 155.758 145.05 155.013 144.571 154.409C144.092 153.805 143.503 153.352 142.805 153.05C142.107 152.737 141.305 152.581 140.399 152.581H135.305V148.909H140.399C141.92 148.909 143.31 149.17 144.571 149.69C145.842 150.201 146.941 150.935 147.868 151.894C148.795 152.852 149.508 153.998 150.008 155.331C150.519 156.654 150.774 158.128 150.774 159.753V160.831C150.774 162.446 150.519 163.92 150.008 165.253C149.508 166.586 148.795 167.732 147.868 168.69C146.951 169.638 145.852 170.373 144.571 170.894C143.3 171.404 141.894 171.659 140.352 171.659ZM138.055 148.909V171.659H133.368V148.909H138.055ZM161.68 171.972C160.368 171.972 159.191 171.763 158.149 171.347C157.107 170.92 156.222 170.331 155.493 169.581C154.774 168.831 154.222 167.961 153.836 166.972C153.451 165.972 153.258 164.909 153.258 163.784V163.159C153.258 161.878 153.441 160.706 153.805 159.644C154.17 158.581 154.691 157.659 155.368 156.878C156.055 156.097 156.888 155.498 157.868 155.081C158.847 154.654 159.951 154.44 161.18 154.44C162.378 154.44 163.441 154.638 164.368 155.034C165.295 155.43 166.071 155.993 166.696 156.722C167.331 157.451 167.81 158.326 168.133 159.347C168.456 160.357 168.618 161.482 168.618 162.722V164.597H155.18V161.597H164.196V161.253C164.196 160.628 164.081 160.071 163.852 159.581C163.633 159.081 163.3 158.685 162.852 158.394C162.404 158.102 161.831 157.956 161.133 157.956C160.54 157.956 160.029 158.086 159.602 158.347C159.175 158.607 158.826 158.972 158.555 159.44C158.295 159.909 158.097 160.461 157.961 161.097C157.836 161.722 157.774 162.409 157.774 163.159V163.784C157.774 164.461 157.868 165.086 158.055 165.659C158.253 166.232 158.529 166.727 158.883 167.144C159.248 167.56 159.685 167.883 160.196 168.112C160.717 168.341 161.305 168.456 161.961 168.456C162.774 168.456 163.529 168.3 164.227 167.987C164.935 167.664 165.545 167.18 166.055 166.534L168.243 168.909C167.888 169.42 167.404 169.909 166.79 170.378C166.185 170.847 165.456 171.232 164.602 171.534C163.748 171.826 162.774 171.972 161.68 171.972ZM175.93 147.659V171.659H171.415V147.659H175.93ZM184.399 154.753V171.659H179.883V154.753H184.399ZM179.602 150.347C179.602 149.69 179.831 149.149 180.29 148.722C180.748 148.295 181.362 148.081 182.133 148.081C182.894 148.081 183.503 148.295 183.961 148.722C184.43 149.149 184.665 149.69 184.665 150.347C184.665 151.003 184.43 151.545 183.961 151.972C183.503 152.399 182.894 152.612 182.133 152.612C181.362 152.612 180.748 152.399 180.29 151.972C179.831 151.545 179.602 151.003 179.602 150.347ZM193.868 168.378L197.618 154.753H202.321L196.618 171.659H193.774L193.868 168.378ZM191.29 154.753L195.055 168.394L195.133 171.659H192.274L186.571 154.753H191.29ZM211.899 171.972C210.586 171.972 209.409 171.763 208.368 171.347C207.326 170.92 206.441 170.331 205.711 169.581C204.993 168.831 204.441 167.961 204.055 166.972C203.67 165.972 203.477 164.909 203.477 163.784V163.159C203.477 161.878 203.659 160.706 204.024 159.644C204.388 158.581 204.909 157.659 205.586 156.878C206.274 156.097 207.107 155.498 208.086 155.081C209.066 154.654 210.17 154.44 211.399 154.44C212.597 154.44 213.659 154.638 214.586 155.034C215.513 155.43 216.29 155.993 216.915 156.722C217.55 157.451 218.029 158.326 218.352 159.347C218.675 160.357 218.836 161.482 218.836 162.722V164.597H205.399V161.597H214.415V161.253C214.415 160.628 214.3 160.071 214.071 159.581C213.852 159.081 213.519 158.685 213.071 158.394C212.623 158.102 212.05 157.956 211.352 157.956C210.758 157.956 210.248 158.086 209.821 158.347C209.394 158.607 209.045 158.972 208.774 159.44C208.513 159.909 208.316 160.461 208.18 161.097C208.055 161.722 207.993 162.409 207.993 163.159V163.784C207.993 164.461 208.086 165.086 208.274 165.659C208.472 166.232 208.748 166.727 209.102 167.144C209.467 167.56 209.904 167.883 210.415 168.112C210.935 168.341 211.524 168.456 212.18 168.456C212.993 168.456 213.748 168.3 214.446 167.987C215.154 167.664 215.763 167.18 216.274 166.534L218.461 168.909C218.107 169.42 217.623 169.909 217.008 170.378C216.404 170.847 215.675 171.232 214.821 171.534C213.967 171.826 212.993 171.972 211.899 171.972ZM225.899 158.44V171.659H221.399V154.753H225.633L225.899 158.44ZM230.993 154.644L230.915 158.815C230.696 158.784 230.43 158.758 230.118 158.737C229.816 158.706 229.54 158.69 229.29 158.69C228.654 158.69 228.102 158.774 227.633 158.94C227.175 159.097 226.79 159.331 226.477 159.644C226.175 159.956 225.946 160.336 225.79 160.784C225.644 161.232 225.56 161.743 225.54 162.315L224.633 162.034C224.633 160.94 224.743 159.935 224.961 159.019C225.18 158.091 225.498 157.284 225.915 156.597C226.342 155.909 226.862 155.378 227.477 155.003C228.092 154.628 228.795 154.44 229.586 154.44C229.836 154.44 230.092 154.461 230.352 154.503C230.612 154.534 230.826 154.581 230.993 154.644ZM238.415 169.753L242.899 154.753H247.727L240.93 174.206C240.784 174.633 240.586 175.091 240.336 175.581C240.097 176.071 239.769 176.534 239.352 176.972C238.946 177.42 238.43 177.784 237.805 178.065C237.191 178.347 236.435 178.487 235.54 178.487C235.112 178.487 234.763 178.461 234.493 178.409C234.222 178.357 233.899 178.284 233.524 178.19V174.894C233.638 174.894 233.758 174.894 233.883 174.894C234.008 174.904 234.128 174.909 234.243 174.909C234.836 174.909 235.321 174.841 235.696 174.706C236.071 174.571 236.373 174.362 236.602 174.081C236.831 173.81 237.013 173.456 237.149 173.019L238.415 169.753ZM236.54 154.753L240.211 167.003L240.852 171.769L237.79 172.097L231.711 154.753H236.54Z" fill="#D6EB3D"/>
<path d="M171.237 64.3331H183.037V42.5163L165.337 14.7492H143.703V64.3331H151.57" fill="#F7C647"/>
<path d="M84.7032 64.3328H68.9696V0.865479H143.704V64.3328H104.37" fill="#F7C647"/>
<path d="M80.7694 54.4166H68.9692V58.3834H80.7694V54.4166Z" fill="#503CEB"/>
<path d="M143.704 54.4168H108.303V58.3835H143.704V54.4168Z" fill="#503CEB"/>
<path d="M183.038 54.4166H175.171V58.3834H183.038V54.4166Z" fill="white"/>
<path d="M143.703 6.8158H74.8688V10.7825H143.703V6.8158Z" fill="#503CEB"/>
<path d="M94.5359 74.2506C99.9668 74.2506 104.369 69.8107 104.369 64.3338C104.369 58.8568 99.9668 54.4169 94.5359 54.4169C89.105 54.4169 84.7024 58.8568 84.7024 64.3338C84.7024 69.8107 89.105 74.2506 94.5359 74.2506Z" fill="white"/>
<path d="M161.403 74.2505C166.834 74.2505 171.237 69.8106 171.237 64.3336C171.237 58.8567 166.834 54.4168 161.403 54.4168C155.972 54.4168 151.57 58.8567 151.57 64.3336C151.57 69.8106 155.972 74.2505 161.403 74.2505Z" fill="white"/>
<path d="M96.5027 62.3501H92.5693V66.3168H96.5027V62.3501Z" fill="#503CEB"/>
<path d="M163.37 62.3502H159.436V66.317H163.37V62.3502Z" fill="#503CEB"/>
<path d="M170.392 22.683H151.571V40.5333H181.779L170.392 22.683Z" fill="#BBEEEE"/>
<path d="M147.636 14.7489H143.703V64.3328H147.636V14.7489Z" fill="#FFA83D"/>
<path d="M181.779 40.5333L171.1 23.7739C165.851 30.0551 159.142 34.9262 151.571 37.9548V40.5331H181.779V40.5333Z" fill="#BFF7F7"/>
<path d="M122.3 18.2219C121.68 18.2219 121.65 18.7816 121.648 18.7939C121.648 19.1554 121.939 19.4496 122.3 19.4496C122.659 19.4496 122.951 19.1575 122.953 18.7959C122.951 18.7755 122.912 18.2219 122.3 18.2219Z" fill="#008BD2"/>
<path d="M111.767 18.2219C111.145 18.2219 111.117 18.7816 111.115 18.7939C111.117 19.1554 111.408 19.4496 111.767 19.4496C112.126 19.4496 112.418 19.1575 112.42 18.7959C112.418 18.7755 112.379 18.2219 111.767 18.2219Z" fill="#008BD2"/>
<path d="M128.151 19.2786V17.534C128.151 17.4911 128.118 17.4441 128.01 17.4012L126.666 16.8946C126.666 16.8946 126.513 16.8312 126.154 16.8312H117.255H108.476C108.117 16.8312 107.685 16.8946 107.685 16.8946L106.339 17.4012C106.233 17.442 106.2 17.4911 106.198 17.534V19.2786L104.37 20.5226V20.7065V20.7596V41.0838C104.37 41.854 105.001 42.4791 105.778 42.4791H116.49L117.224 38.377H114.385C114.322 38.377 106.267 38.0747 106.267 38.0747L113.728 37.6661L113.63 37.2065L111.128 36.849L113.508 36.6447L113.351 36.0809L109.459 35.4946C109.459 35.4946 113.687 35.0247 113.751 35.0247H117.842L118.154 33.3517C118.521 31.3211 119.35 29.8257 120.651 28.7103C121.956 27.5909 123.616 27.0373 125.634 27.0373C126.447 27.0373 126.966 27.2272 127.19 27.6195C127.339 27.8523 127.445 28.267 127.543 28.6981C127.637 29.1414 127.72 29.5418 127.663 29.8339C127.592 30.267 127.082 30.4202 126.15 30.4202H125.829C124.151 30.4202 123.129 31.3803 122.786 33.3231L122.478 35.0247H124.428C125.154 35.0247 125.417 35.5293 125.216 36.6651C124.999 37.8479 124.534 38.375 123.81 38.375H121.862L121.136 42.477H128.573C129.35 42.477 129.98 41.8519 129.98 41.0818V20.7576V20.7045V20.5206L128.151 19.2786ZM122.811 22.8699C122.721 24.0241 122.195 25.0823 121.306 25.879C120.245 26.8309 118.762 27.3335 117.016 27.3335C115.497 27.3335 114.048 26.8207 112.935 25.8871C111.946 25.0577 111.338 23.9771 111.226 22.874C111.005 22.7882 110.848 22.5737 110.848 22.3203C110.848 21.9935 111.113 21.7279 111.442 21.7279C111.77 21.7279 112.035 21.9935 112.035 22.3203C112.035 22.3796 112.027 22.4347 112.011 22.4879C112.011 22.5246 112.011 22.5491 112.011 22.5491C112.011 24.6982 114.624 26.5408 117.298 26.5408C120.741 26.5408 122.003 24.4633 122.009 22.5226C121.983 22.4531 121.966 22.3775 121.966 22.2999C121.966 21.9628 122.242 21.6871 122.578 21.6871C122.917 21.6871 123.192 21.9628 123.192 22.2999C123.192 22.5573 123.035 22.7779 122.811 22.8699ZM127.251 17.822C127.045 17.9139 126.939 18.0549 126.888 18.1979C126.884 18.2102 126.882 18.2204 126.878 18.2306C126.878 18.2326 126.876 18.2367 126.876 18.2388C126.874 18.249 126.872 18.2571 126.87 18.2653C126.868 18.2694 126.868 18.2735 126.866 18.2776C126.862 18.2857 126.862 18.2919 126.862 18.3C126.862 18.3062 126.859 18.3123 126.857 18.3184C126.857 18.3246 126.855 18.3286 126.855 18.3348C126.855 18.3429 126.853 18.3511 126.851 18.3593C126.851 18.3634 126.851 18.3654 126.849 18.3695C126.849 18.3777 126.847 18.3858 126.847 18.394L126.839 18.3899V18.3981V18.5962V20.7617H107.507V18.5922V18.3961V18.3879L107.499 18.392C107.485 18.1897 107.395 17.9548 107.095 17.822L106.416 17.6034L107.713 17.1397C107.909 17.0539 108.199 17.0539 108.199 17.0539H126.152C126.152 17.0539 126.411 17.0519 126.666 17.1356L127.934 17.6014L127.251 17.822Z" fill="#008BD2"/>
</svg>
