<svg width="326" height="36" viewBox="0 0 326 36" fill="none" xmlns="http://www.w3.org/2000/svg">
<path d="M28.8203 25.2114L33.4141 0.930176H40.4219L32.8516 35.0552H25.7734L20.2188 12.2271L14.6641 35.0552H7.58594L0.015625 0.930176H7.02344L11.6406 25.1646L17.2656 0.930176H23.2188L28.8203 25.2114Z" fill="white"/>
<path d="M72.0156 35.0552H64.9844V20.4302H51.2734V35.0552H44.2422V0.930176H51.2734V14.7583H64.9844V0.930176H72.0156V35.0552Z" fill="white"/>
<path d="M89.2891 16.3052L96.3906 0.930176H104.078L92.875 22.6802V35.0552H85.7266V22.6802L74.5234 0.930176H82.2344L89.2891 16.3052Z" fill="white"/>
<path d="M136.844 26.1021C136.844 24.7739 136.375 23.7583 135.438 23.0552C134.5 22.3364 132.812 21.5864 130.375 20.8052C127.938 20.0083 126.008 19.2271 124.586 18.4614C120.711 16.3677 118.773 13.5474 118.773 10.0005C118.773 8.15674 119.289 6.51611 120.32 5.07861C121.367 3.62549 122.859 2.49268 124.797 1.68018C126.75 0.867676 128.938 0.461426 131.359 0.461426C133.797 0.461426 135.969 0.906738 137.875 1.79736C139.781 2.67236 141.258 3.91455 142.305 5.52393C143.367 7.1333 143.898 8.96143 143.898 11.0083H136.867C136.867 9.4458 136.375 8.23486 135.391 7.37549C134.406 6.50049 133.023 6.06299 131.242 6.06299C129.523 6.06299 128.188 6.43018 127.234 7.16455C126.281 7.8833 125.805 8.83643 125.805 10.0239C125.805 11.1333 126.359 12.063 127.469 12.813C128.594 13.563 130.242 14.2661 132.414 14.9224C136.414 16.1255 139.328 17.6177 141.156 19.3989C142.984 21.1802 143.898 23.3989 143.898 26.0552C143.898 29.0083 142.781 31.3286 140.547 33.0161C138.312 34.688 135.305 35.5239 131.523 35.5239C128.898 35.5239 126.508 35.0474 124.352 34.0942C122.195 33.1255 120.547 31.8052 119.406 30.1333C118.281 28.4614 117.719 26.5239 117.719 24.3208H124.773C124.773 28.0864 127.023 29.9692 131.523 29.9692C133.195 29.9692 134.5 29.6333 135.438 28.9614C136.375 28.2739 136.844 27.3208 136.844 26.1021Z" fill="white"/>
<path d="M176.453 35.0552H169.422V20.4302H155.711V35.0552H148.68V0.930176H155.711V14.7583H169.422V0.930176H176.453V35.0552Z" fill="white"/>
<path d="M210.648 18.7661C210.648 22.1255 210.055 25.0708 208.867 27.6021C207.68 30.1333 205.977 32.0864 203.758 33.4614C201.555 34.8364 199.023 35.5239 196.164 35.5239C193.336 35.5239 190.812 34.8442 188.594 33.4849C186.375 32.1255 184.656 30.188 183.438 27.6724C182.219 25.1411 181.602 22.2349 181.586 18.9536V17.2661C181.586 13.9067 182.188 10.9536 183.391 8.40674C184.609 5.84424 186.32 3.8833 188.523 2.52393C190.742 1.14893 193.273 0.461426 196.117 0.461426C198.961 0.461426 201.484 1.14893 203.688 2.52393C205.906 3.8833 207.617 5.84424 208.82 8.40674C210.039 10.9536 210.648 13.8989 210.648 17.2427V18.7661ZM203.523 17.2192C203.523 13.6411 202.883 10.9224 201.602 9.06299C200.32 7.20361 198.492 6.27393 196.117 6.27393C193.758 6.27393 191.938 7.1958 190.656 9.03955C189.375 10.8677 188.727 13.5552 188.711 17.1021V18.7661C188.711 22.2505 189.352 24.9536 190.633 26.8755C191.914 28.7974 193.758 29.7583 196.164 29.7583C198.523 29.7583 200.336 28.8364 201.602 26.9927C202.867 25.1333 203.508 22.4302 203.523 18.8833V17.2192Z" fill="white"/>
<path d="M222.789 23.0317V35.0552H215.758V0.930176H229.07C231.633 0.930176 233.883 1.39893 235.82 2.33643C237.773 3.27393 239.273 4.60986 240.32 6.34424C241.367 8.06299 241.891 10.0239 241.891 12.2271C241.891 15.5708 240.742 18.2114 238.445 20.1489C236.164 22.0708 233 23.0317 228.953 23.0317H222.789ZM222.789 17.3364H229.07C230.93 17.3364 232.344 16.8989 233.312 16.0239C234.297 15.1489 234.789 13.8989 234.789 12.2739C234.789 10.6021 234.297 9.25049 233.312 8.21924C232.328 7.18799 230.969 6.65674 229.234 6.62549H222.789V17.3364Z" fill="white"/>
<path d="M264.438 26.1021C264.438 24.7739 263.969 23.7583 263.031 23.0552C262.094 22.3364 260.406 21.5864 257.969 20.8052C255.531 20.0083 253.602 19.2271 252.18 18.4614C248.305 16.3677 246.367 13.5474 246.367 10.0005C246.367 8.15674 246.883 6.51611 247.914 5.07861C248.961 3.62549 250.453 2.49268 252.391 1.68018C254.344 0.867676 256.531 0.461426 258.953 0.461426C261.391 0.461426 263.562 0.906738 265.469 1.79736C267.375 2.67236 268.852 3.91455 269.898 5.52393C270.961 7.1333 271.492 8.96143 271.492 11.0083H264.461C264.461 9.4458 263.969 8.23486 262.984 7.37549C262 6.50049 260.617 6.06299 258.836 6.06299C257.117 6.06299 255.781 6.43018 254.828 7.16455C253.875 7.8833 253.398 8.83643 253.398 10.0239C253.398 11.1333 253.953 12.063 255.062 12.813C256.188 13.563 257.836 14.2661 260.008 14.9224C264.008 16.1255 266.922 17.6177 268.75 19.3989C270.578 21.1802 271.492 23.3989 271.492 26.0552C271.492 29.0083 270.375 31.3286 268.141 33.0161C265.906 34.688 262.898 35.5239 259.117 35.5239C256.492 35.5239 254.102 35.0474 251.945 34.0942C249.789 33.1255 248.141 31.8052 247 30.1333C245.875 28.4614 245.312 26.5239 245.312 24.3208H252.367C252.367 28.0864 254.617 29.9692 259.117 29.9692C260.789 29.9692 262.094 29.6333 263.031 28.9614C263.969 28.2739 264.438 27.3208 264.438 26.1021Z" fill="white"/>
<path d="M288.039 16.3052L295.141 0.930176H302.828L291.625 22.6802V35.0552H284.477V22.6802L273.273 0.930176H280.984L288.039 16.3052Z" fill="white"/>
<path d="M311.031 24.5786C311.031 22.3911 311.297 20.6489 311.828 19.3521C312.359 18.0552 313.328 16.7817 314.734 15.5317C316.156 14.2661 317.102 13.2427 317.57 12.4614C318.039 11.6646 318.273 10.8286 318.273 9.95361C318.273 7.31299 317.055 5.99268 314.617 5.99268C313.461 5.99268 312.531 6.35205 311.828 7.0708C311.141 7.77393 310.781 8.75049 310.75 10.0005H303.953C303.984 7.01611 304.945 4.68018 306.836 2.99268C308.742 1.30518 311.336 0.461426 314.617 0.461426C317.93 0.461426 320.5 1.26611 322.328 2.87549C324.156 4.46924 325.07 6.72705 325.07 9.64893C325.07 10.9771 324.773 12.2349 324.18 13.4224C323.586 14.5942 322.547 15.8989 321.062 17.3364L319.164 19.1411C317.977 20.2817 317.297 21.6177 317.125 23.1489L317.031 24.5786H311.031ZM310.352 31.7739C310.352 30.7271 310.703 29.8677 311.406 29.1958C312.125 28.5083 313.039 28.1646 314.148 28.1646C315.258 28.1646 316.164 28.5083 316.867 29.1958C317.586 29.8677 317.945 30.7271 317.945 31.7739C317.945 32.8052 317.594 33.6567 316.891 34.3286C316.203 35.0005 315.289 35.3364 314.148 35.3364C313.008 35.3364 312.086 35.0005 311.383 34.3286C310.695 33.6567 310.352 32.8052 310.352 31.7739Z" fill="white"/>
</svg>
